<?xml version="1.0" encoding="UTF-8"?>
<svg id="logosandtypes_com" data-name="logosandtypes com" xmlns="http://www.w3.org/2000/svg" viewBox="0 0 150 150">
  <defs>
    <style>
      .cls-1 {
        fill: rgb(249, 250, 251);
      }

      .cls-2 {
        fill: none;
      }
    </style>
  </defs>
  <path class="cls-2" d="M0,0H150V150H0V0Z"/>
  <path class="cls-1" d="M76.97,10.6c-31.97,0-55.56,22.07-55.56,22.07v25.12c0,26.64,1.14,32.73,2.66,37.3,4.57,11.8,13.7,22.45,27.4,32.73,7.99,6.09,16.36,11.04,25.12,15.22,8.75-4.19,17.13-9.51,25.12-15.22,13.7-10.28,23.21-21.31,27.4-32.73,1.52-4.57,2.66-10.28,2.66-37.3v-25.12c.38,0-23.21-22.07-54.8-22.07Zm45.29,47.57c0,25.5-1.14,30.83-2.28,33.87-3.81,9.51-11.8,19.03-24.36,28.54-5.71,4.19-11.8,7.99-17.89,11.42l-1.52,.76-1.52-.76c-6.09-3.43-12.18-7.23-17.89-11.42-12.18-9.13-20.55-18.65-23.98-28.54-1.14-3.04-2.28-7.99-2.28-33.87v-20.93l1.14-.76c8.75-6.09,25.12-16.37,45.29-16.37s36.53,10.28,44.53,16.37l1.14,.76-.38,20.93Zm-45.29-31.97c-17.51,0-31.97,8.75-39.96,14.08v17.89c0,23.6,.76,29.31,1.9,31.97,3.04,8.37,10.66,17.13,22.07,25.5,4.95,3.81,10.28,7.23,15.6,10.28,5.33-3.04,10.66-6.47,15.6-10.28,11.42-8.37,19.03-17.13,22.07-25.5,.76-2.28,1.52-7.99,1.52-31.59v-18.27c-7.23-5.71-21.69-14.08-38.82-14.08Zm28.54,31.97c0,19.79-.76,25.88-1.14,27.78v.38c-1.52,4.57-6.47,11.42-18.27,20.55-2.28,1.52-4.95,3.43-7.61,5.33l-1.52,1.14-1.52-1.14c-2.66-1.52-5.33-3.43-7.61-5.33-12.18-8.75-16.75-15.98-18.65-20.55v-.38c-.76-1.9-1.14-7.99-1.14-27.78v-12.18l1.52-.76c6.47-3.81,16.36-8.37,27.4-8.37s20.93,4.57,27.4,8.37l1.52,.76-.38,12.18Zm-17.13,23.6c-.38,3.43-5.71,7.99-11.8,12.56-5.71-4.57-11.04-8.75-12.18-12.56-.38-1.9-.38-3.43-.38-5.33h35.39v-26.64c-6.85-4.19-14.84-6.47-22.83-6.47s-15.98,2.28-23.21,6.47v19.41c0,12.56,1.52,16.37,1.52,16.37,3.81,9.51,21.69,20.55,21.69,20.55,0,0,16.75-10.66,21.69-20.55,.38-1.14,.76-2.28,.76-3.81h-10.66Zm-24.36-25.12c3.81-1.9,7.99-3.04,12.56-3.04s8.75,1.14,12.56,3.04v9.13h-25.12v-9.13Z"/>
</svg>