<?xml version="1.0" standalone="no"?>
<!DOCTYPE svg PUBLIC "-//W3C//DTD SVG 20010904//EN"
 "http://www.w3.org/TR/2001/REC-SVG-20010904/DTD/svg10.dtd">
<svg version="1.0" xmlns="http://www.w3.org/2000/svg"
 width="200.000000pt" height="200.000000pt" viewBox="0 0 200.000000 200.000000"
 preserveAspectRatio="xMidYMid meet">

<g transform="translate(0.000000,200.000000) scale(0.100000,-0.100000)"
fill="#000000" stroke="none">
<path d="M550 1600 l0 -110 105 0 105 0 0 110 0 110 -105 0 -105 0 0 -110z"/>
<path d="M540 1158 c0 -187 4 -282 14 -329 69 -322 420 -492 709 -344 27 14
51 25 53 25 2 0 4 -63 4 -140 l0 -141 108 3 107 3 0 390 c-1 380 -1 392 -23
454 -75 209 -258 341 -471 341 -88 0 -154 -16 -228 -54 l-53 -26 0 40 0 40
-110 0 -110 0 0 -262z m596 31 c65 -24 129 -82 159 -144 15 -30 20 -60 20
-120 0 -70 -4 -87 -29 -133 -57 -102 -184 -163 -296 -142 -72 14 -135 52 -173
107 -42 59 -55 97 -56 164 -2 132 79 240 209 280 46 14 109 9 166 -12z"/>
</g>
</svg>
